<?xml version="1.0" encoding="utf-8"?>
<!-- Generator: Adobe Illustrator 22.0.0, SVG Export Plug-In . SVG Version: 6.00 Build 0)  -->
<svg version="1.1" id="图层_1" xmlns="http://www.w3.org/2000/svg" xmlns:xlink="http://www.w3.org/1999/xlink" x="0px" y="0px"
	 viewBox="0 0 40 40" style="enable-background:new 0 0 40 40;" xml:space="preserve">
<g>
	<path class="st0" d="M20,34.4L20,34.4h4.1c0-2,0-4.1,0-6.1c0-0.4,0.3-0.8,0.8-0.8c0.5,0,0.8,0.4,0.8,0.8v3.6h3.5
		c0.1-0.1,0.1-0.2,0.1-0.3v-2.9c0-3.8-2.6-5.6-5-8.1c-1.3,0.7-2.7,1.1-4.2,1.1c-1.5,0-3-0.4-4.2-1.1c-2.5,2.5-5,4.3-5,8.1v2.9
		c0,0.1,0,0.2,0.1,0.3h3.5v-3.6c0-0.4,0.4-0.8,0.8-0.8c0.4,0,0.8,0.4,0.8,0.8c0,2,0,4.1,0,6.1H20L20,34.4z"/>
	<path class="st0" d="M20,18.9L20,18.9c3.6,0,6.5-2.9,6.5-6.5c0-3.6-2.9-6.5-6.5-6.5c-3.6,0-6.5,2.9-6.5,6.5
		C13.5,16.1,16.5,18.9,20,18.9L20,18.9z"/>
	<path class="st0" d="M5.9,34.4L5.9,34.4h3.9c-0.5-0.2-0.9-0.5-1.2-0.9C8.2,32.9,8,32.2,8,31.5v-2.9c0-1.2,0.2-2.3,0.6-3.4
		c-1.1,0-2.1-0.3-3-0.7c-1.1,1.1-2.6,2.3-3.2,3.7l0,0l0,0c-0.3,0.6-0.4,1.3-0.4,2v2.1h2.3v-2.4c0-0.4,0.4-0.8,0.8-0.8
		c0.4,0,0.8,0.4,0.8,0.8V34.4L5.9,34.4z"/>
	<path class="st0" d="M10.9,13.9L10.9,13.9c-0.2-0.1-0.5-0.3-0.8-0.3c-0.4-0.1-0.9-0.2-1.4-0.2c-1.3,0-2.4,0.5-3.3,1.4
		c-0.8,0.8-1.4,2-1.4,3.3c0,1.3,0.5,2.4,1.4,3.3c0.9,0.9,2,1.4,3.3,1.4c0.5,0,1,0,1.5-0.2c1-1.2,2.2-2.3,3.3-3.4
		C12.2,17.6,11.2,15.8,10.9,13.9L10.9,13.9z"/>
	<path class="st0" d="M34.1,34.4L34.1,34.4v-4.3c0-0.4,0.3-0.8,0.8-0.8c0.5,0,0.8,0.4,0.8,0.8v2.4H38v-2.1c0-0.7-0.1-1.4-0.4-2
		c-0.2-0.6-0.6-1.2-1.2-1.7l-2-2c-0.9,0.4-1.9,0.7-3,0.7c0.4,1.1,0.6,2.2,0.6,3.4v2.9c0,0.7-0.2,1.4-0.6,1.9
		c-0.3,0.4-0.7,0.8-1.2,0.9H34.1L34.1,34.4z"/>
	<path class="st0" d="M29.1,13.9L29.1,13.9c-0.3,2-1.2,3.6-2.7,5.1c1.1,1.1,2.4,2.2,3.3,3.4c0.1,0.1,0.4,0.2,0.6,0.2
		c0.3,0.1,0.6,0.1,0.9,0.1c1.3,0,2.4-0.5,3.3-1.4c0.8-0.8,1.4-2,1.4-3.3c0-1.3-0.5-2.4-1.4-3.3c-0.8-0.8-2-1.4-3.3-1.4
		c-0.5,0-1,0.1-1.4,0.2C29.6,13.6,29.3,13.8,29.1,13.9L29.1,13.9z"/>
</g>
</svg>
