<?xml version="1.0" encoding="utf-8"?>
<!-- Generator: Adobe Illustrator 22.0.0, SVG Export Plug-In . SVG Version: 6.00 Build 0)  -->
<svg version="1.1" id="图层_1" xmlns="http://www.w3.org/2000/svg" xmlns:xlink="http://www.w3.org/1999/xlink" x="0px" y="0px"
	 viewBox="0 0 40 40" style="enable-background:new 0 0 40 40;" xml:space="preserve">
<g>
	<rect id="XMLID_212_" x="5" y="24.8" class="st0" width="11.3" height="3.8"/>
	<path id="XMLID_211_" class="st0" d="M16.3,34.2H8c-1.7,0-3-1.3-3-3v-0.8h11.3V34.2z"/>
	<rect id="XMLID_210_" x="23.8" y="24.8" class="st0" width="11.3" height="3.8"/>
	<path id="XMLID_209_" class="st0" d="M32,34.2h-8.3v-3.8H35v0.8C35,32.9,33.7,34.2,32,34.2z"/>
	<path id="XMLID_206_" class="st0" d="M23.8,6.1v5.6h1.9v5.6h-1.9v5.6H35v-15c0-1-0.8-1.9-1.9-1.9H23.8z M33.1,15.4h-3.8v-1.9h3.8
		V15.4z"/>
	<path id="XMLID_203_" class="st0" d="M16.3,22.9v-5.6h-1.9v-5.6h1.9V6.1H6.9C5.8,6.1,5,6.9,5,7.9v15H16.3z M6.9,13.6h3.8v1.9H6.9
		V13.6z"/>
	<rect id="XMLID_202_" x="18.1" y="6.1" class="st0" width="3.8" height="28.1"/>
</g>
</svg>
