<?xml version="1.0" encoding="utf-8"?>
<!-- Generator: Adobe Illustrator 22.0.0, SVG Export Plug-In . SVG Version: 6.00 Build 0)  -->
<svg version="1.1" id="图层_1" xmlns="http://www.w3.org/2000/svg" xmlns:xlink="http://www.w3.org/1999/xlink" x="0px" y="0px"
	 viewBox="0 0 40 40" style="enable-background:new 0 0 40 40;" xml:space="preserve">
<g id="XMLID_3407_">
	<path id="XMLID_3408_" class="st0" d="M30.4,7.7h-6.2c0-2.3-1.9-4.1-4.1-4.1c-2.3,0-4.1,1.9-4.1,4.1H9.7c-2.3,0-4.1,1.9-4.1,4.1
		v20.7c0,2.3,1.9,4.1,4.1,4.1h20.7c2.3,0,4.1-1.9,4.1-4.1V11.9C34.5,9.6,32.7,7.7,30.4,7.7z M18,7.7h4.1v4.1H18V7.7z M30.4,32.6H9.7
		v-0.5c0-4.3,3.5-7.8,7.8-7.8H18c-2.3,0-4.1-1.9-4.1-4.1v-2.1c0-2.3,1.9-4.1,4.1-4.1h4.1c2.3,0,4.1,1.9,4.1,4.1v2.1
		c0,2.3-1.9,4.1-4.1,4.1h0.5c4.3,0,7.8,3.5,7.8,7.8V32.6z"/>
</g>
</svg>
