<?xml version="1.0" encoding="utf-8"?>
<!-- Generator: Adobe Illustrator 22.0.0, SVG Export Plug-In . SVG Version: 6.00 Build 0)  -->
<svg version="1.1" id="图层_1" xmlns="http://www.w3.org/2000/svg" xmlns:xlink="http://www.w3.org/1999/xlink" x="0px" y="0px"
	 viewBox="0 0 16 16" style="enable-background:new 0 0 16 16;" xml:space="preserve">
<style type="text/css">
	.st0{fill:#231815;}
	.st1{fill:#999999;}
</style>
<g>
	<path class="st1" d="M8,16c1.1,0,2-0.9,2-2H6C6,15.1,6.9,16,8,16z"/>
	<path class="st1" d="M14.2,10.9c-1.1-0.8-1.1-4.2-1.4-6.1C12.5,3,11.1,2.2,10,2h0v0c0-1.1-0.9-2-2-2h0C6.9,0,6,0.9,6,2v0h0
		C4.9,2.2,3.5,3,3.3,4.8c-0.3,1.9-0.3,5.4-1.4,6.1C1.3,11.3,1,11.7,1,12.3V13h4h1h2h2h1h4v-0.7C15,11.7,14.7,11.3,14.2,10.9z"/>
</g>
</svg>
