<?xml version="1.0" encoding="utf-8"?>
<!-- Generator: Adobe Illustrator 22.0.0, SVG Export Plug-In . SVG Version: 6.00 Build 0)  -->
<svg version="1.1" id="图层_1" xmlns="http://www.w3.org/2000/svg" xmlns:xlink="http://www.w3.org/1999/xlink" x="0px" y="0px"
	 viewBox="0 0 16 16" style="enable-background:new 0 0 16 16;" xml:space="preserve">
<style type="text/css">
	.st0{fill:#fff;}
	.st1{fill:#999999;}
</style>
<g>
	<polygon id="XMLID_232_" class="st0" points="5.4,15 6.4,15 6.4,16 9.4,16 9.4,15 10.4,15 10.4,13 5.4,13 	"/>
	<path id="XMLID_229_" class="st0" d="M6.8,0.1C4.7,0.6,3,2.3,2.6,4.4C2.2,6.8,3.2,8.9,5,10.1c0.3,0.2,0.5,0.5,0.5,0.8V12h5v-1.1
		c0-0.3,0.2-0.6,0.4-0.8c1.6-1,2.6-2.7,2.6-4.7C13.5,2.1,10.4-0.6,6.8,0.1z M6.4,6c0,0.6-0.4,1-1,1s-1-0.4-1-1V4c0-0.6,0.4-1,1-1
		s1,0.4,1,1V6z"/>
</g>
</svg>
