<?xml version="1.0" encoding="utf-8"?>
<!-- Generator: Adobe Illustrator 22.0.0, SVG Export Plug-In . SVG Version: 6.00 Build 0)  -->
<svg version="1.1" id="图层_1" xmlns="http://www.w3.org/2000/svg" xmlns:xlink="http://www.w3.org/1999/xlink" x="0px" y="0px"
	 viewBox="0 0 16 16" style="enable-background:new 0 0 16 16;" xml:space="preserve">
<style type="text/css">
	.st0{fill:#fff;}
	.st1{fill:#999999;}
</style>
<path id="XMLID_2_" class="st0" d="M15.6,6.9l-1.7-0.2c-0.2-0.7-0.4-1.4-0.8-2l1.1-1.4c0.2-0.2,0.1-0.5,0-0.7l-0.8-0.8
	c-0.2-0.2-0.5-0.2-0.7,0L11.2,3c-0.6-0.4-1.3-0.7-2-0.8L9.1,0.4C9,0.2,8.8,0,8.6,0H7.4C7.2,0,7,0.2,6.9,0.4L6.7,2.1
	C6,2.3,5.3,2.6,4.8,3L3.4,1.9c-0.2-0.2-0.5-0.1-0.7,0L1.9,2.7c-0.2,0.2-0.2,0.5,0,0.7L3,4.8C2.6,5.3,2.3,6,2.1,6.7L0.4,6.9
	C0.2,7,0,7.2,0,7.4v1.1C0,8.8,0.2,9,0.4,9.1l1.7,0.2c0.2,0.7,0.4,1.4,0.8,2l-1.1,1.4c-0.2,0.2-0.1,0.5,0,0.7l0.8,0.8
	c0.2,0.2,0.5,0.2,0.7,0L4.8,13c0.6,0.4,1.3,0.7,2,0.8l0.2,1.7C7,15.8,7.2,16,7.4,16h1.1c0.3,0,0.5-0.2,0.5-0.4l0.2-1.7
	c0.7-0.2,1.4-0.4,2-0.8l1.4,1.1c0.2,0.2,0.5,0.1,0.7,0l0.8-0.8c0.2-0.2,0.2-0.5,0-0.7L13,11.2c0.4-0.6,0.7-1.3,0.8-2l1.7-0.2
	C15.8,9,16,8.8,16,8.6V7.4C16,7.2,15.8,7,15.6,6.9z M8,10c-1.1,0-2-0.9-2-2s0.9-2,2-2s2,0.9,2,2S9.1,10,8,10z"/>
</svg>
