<?xml version="1.0" encoding="utf-8"?>
<!-- Generator: Adobe Illustrator 22.0.0, SVG Export Plug-In . SVG Version: 6.00 Build 0)  -->
<svg version="1.1" id="图层_1" xmlns="http://www.w3.org/2000/svg" xmlns:xlink="http://www.w3.org/1999/xlink" x="0px" y="0px"
	 viewBox="0 0 16 16" style="enable-background:new 0 0 16 16;" xml:space="preserve">
<style type="text/css">
	.st0{fill:#fff;}
	.st1{fill:#999999;}
</style>
<g>
	<path id="XMLID_314_" class="st0" d="M5.2,8C5.2,8,5.1,8,5,8C2.7,8,0.8,6.9,0.2,5.5C0.1,5.8,0,6.2,0,6.5C0,8.3,2,9.8,4.6,10
		C4.7,9.3,4.9,8.6,5.2,8z"/>
	<path id="XMLID_266_" class="st0" d="M4.5,11C4.5,11,4.5,11,4.5,11c-2-0.2-3.7-1.2-4.3-2.5C0.1,8.8,0,9.2,0,9.5
		c0,1.9,2.1,3.4,4.8,3.5C4.6,12.4,4.5,11.7,4.5,11z"/>
	<path id="XMLID_265_" class="st0" d="M5.2,14c-0.1,0-0.2,0-0.2,0c-2.3,0-4.2-1.1-4.8-2.5c-0.1,0.3-0.2,0.7-0.2,1
		C0,14.4,2.2,16,5,16c0.6,0,1.1-0.1,1.6-0.2C6.1,15.3,5.6,14.7,5.2,14z"/>
	<path id="XMLID_258_" class="st0" d="M5,0C2.2,0,0,1.6,0,3.5S2.2,7,5,7c2.8,0,5-1.6,5-3.5S7.8,0,5,0z M6,3v2H5V3H4V2h1h1V3z"/>
	<path id="XMLID_255_" class="st0" d="M11,6c-2.8,0-5,2.2-5,5s2.2,5,5,5c2.8,0,5-2.2,5-5S13.8,6,11,6z M12,13h-1v-2h-1v-1h1V9h1V13z
		"/>
</g>
</svg>
